<svg width="300" height="92" fill="none" xmlns="http://www.w3.org/2000/svg"><path d="M6.997 13.825v31.547c0 .754-.508 1.256-1.272 1.256h-.127c-.763 0-1.272-.502-1.272-1.256V13.825H.127v31.17c0 2.262 1.4 4.147 3.435 5.027v28.153h4.072V50.022c2.035-.88 3.435-2.89 3.307-5.027v-31.17H6.997zm40.713 64.35h4.071v-64.35H47.71v64.35zm38.168-60.58h1.4c.763 0 1.272.503 1.399 1.257v54.295c0 .755-.636 1.257-1.4 1.257h-1.4V17.596zm-4.071-3.77v64.35h5.47c3.054 0 5.471-2.388 5.471-5.279V19.23c0-3.017-2.417-5.405-5.47-5.405h-5.471zm13.613 0v64.35h10.941v-27.65h-4.071v23.88h-2.672v-26.52h6.743v-3.77h-6.743v-26.52h2.672v23.88h4.071v-27.65H95.42zm-77.608 4.65c.127-.754.763-1.256 1.526-1.256.636 0 1.145.628 1.273 1.256v25.64h-2.8v-25.64zm-4.072.377v59.323h4.072v-30.29h2.671v30.29h4.199V18.852c0-3.016-2.417-5.404-5.47-5.404-3.054 0-5.472 2.388-5.472 5.404zm13.614 0v59.323h4.07v-59.7c.128-.754.764-1.256 1.528-1.256.636 0 1.145.628 1.272 1.256v54.672c0 3.017 2.417 5.405 5.47 5.405 3.054 0 5.471-2.388 5.471-5.405V13.825h-4.07v59.7c0 .754-.637 1.382-1.4 1.382-.764 0-1.4-.628-1.4-1.382V18.852c0-3.016-2.417-5.404-5.47-5.404-3.054 0-5.471 2.388-5.471 5.404zm27.226 0v54.295c0 3.017 2.417 5.405 5.47 5.405 3.054 0 5.472-2.388 5.472-5.405v-25.89H61.45v26.142c0 .754-.636 1.257-1.4 1.257-.762 0-1.271-.503-1.271-1.257V18.475c.127-.754.763-1.256 1.526-1.256.636 0 1.145.628 1.273 1.256v26.142h4.07V18.852c0-3.016-2.416-5.404-5.47-5.404-3.053 0-5.598 2.388-5.598 5.404zm17.685 54.673v-55.05c.127-.754.763-1.256 1.526-1.256.636 0 1.145.628 1.273 1.256V73.4c0 .754-.637 1.257-1.4 1.257-.763.125-1.4-.503-1.4-1.131zm-4.072-54.673v54.295c0 3.017 2.418 5.405 5.471 5.405s5.47-2.388 5.47-5.405V18.852c0-3.016-2.416-5.404-5.47-5.404-3.053 0-5.47 2.388-5.47 5.404z" fill="url(#paint0_linear)"/><path d="M147.455 0h-1.017v92h1.017V0z" fill="url(#paint1_linear)"/><path d="M178.626 70.257v1.382h2.672v6.913h1.526v-6.913h2.672v-1.382h-6.87zm9.669 1.257h2.163c1.145 0 1.781.502 1.781 1.382 0 .88-.636 1.383-1.654 1.383h-2.29v-2.765zm-1.399-1.257v8.17h1.399v-2.892h1.781l2.036 2.891h1.781l-2.29-3.142a2.576 2.576 0 002.036-2.514c0-1.633-1.145-2.639-3.054-2.639l-3.689.126zm16.157 0v1.382h2.672v6.913h1.527v-6.913h2.672v-1.382h-6.871zm8.27 0v8.17h6.234v-1.258h-4.707v-2.262h4.198V73.65h-4.198v-2.136h4.707v-1.257h-6.234zm22.519 0l-2.29 3.645-2.29-3.645h-1.781l3.308 5.027v3.142h1.527V75.16l3.307-4.902h-1.781zm-34.86 1.634l1.4 3.267h-2.799l1.399-3.267zm-.636-1.76l-3.69 8.295h1.527l.891-2.01h4.071l.891 2.01h1.526l-3.689-8.295h-1.527zm-26.845 2.388c0 1.508 1.018 2.011 2.799 2.514 1.527.377 1.909.628 1.909 1.257 0 .628-.509 1.005-1.527 1.005-1.018 0-1.908-.377-2.672-1.005l-.89 1.005c.89.88 2.162 1.257 3.435 1.257 1.781 0 2.926-.88 2.926-2.514s-.891-2.01-2.672-2.388c-1.781-.377-2.035-.628-2.035-1.257 0-.628.508-1.005 1.399-1.005.763 0 1.654.377 2.29.88l.763-1.131c-.89-.629-1.908-1.006-3.053-1.006-1.4-.126-2.672.88-2.799 2.262.127 0 .127 0 .127.126zm47.456 1.76c-.128 2.262 1.654 4.147 3.944 4.273h.381a5.47 5.47 0 003.436-1.257v-3.519h-3.563v1.257h2.163v1.634c-.636.377-1.272.628-2.036.628-1.526 0-2.799-1.131-2.799-2.64v-.25c-.127-1.509 1.145-2.891 2.672-2.891.891 0 1.654.251 2.29.88l.891-1.132c-.891-.754-2.036-1.13-3.181-1.13-2.29 0-4.198 1.759-4.198 4.147zm-45.802-15.836h1.654a2.839 2.839 0 013.054 2.639c.127 1.508-1.018 2.89-2.672 3.016h-2.036v-5.655zm-1.527-1.257v8.17h3.054c2.29.125 4.326-1.509 4.453-3.771.127-2.263-1.527-4.273-3.817-4.4h-3.69zm9.288 0v8.17h6.234v-1.258h-4.707v-2.262h4.198V60.58h-4.198v-2.136h4.707v-1.257h-6.234zm15.649 8.17h1.399V57.06h-1.399v8.295zm18.702-8.17v5.656l-4.453-5.656h-1.399v8.17h1.399v-5.908l4.58 5.782h1.273v-8.17l-1.4.126zm20.356 4.65h2.29c1.145 0 1.654.377 1.654 1.131s-.636 1.131-1.654 1.131h-2.417l.127-2.262zm0-3.393h2.036c.891 0 1.399.377 1.399 1.005 0 .629-.636 1.131-1.526 1.131h-1.909v-2.136zm-1.399-1.257v8.17h3.817c1.781 0 3.053-.755 3.053-2.263 0-1.006-.636-1.76-1.654-2.011.764-.377 1.145-1.005 1.145-1.885 0-.503-.127-1.006-.509-1.383a3.48 3.48 0 00-2.163-.754h-3.689v.126zm10.051 1.257h2.163c1.145 0 1.781.502 1.781 1.382 0 .88-.636 1.383-1.654 1.383h-2.29v-2.765zm-1.527-1.257v8.17h1.527v-3.017h1.781l2.036 2.89h1.781l-2.29-3.142a2.575 2.575 0 002.035-2.513c0-1.634-1.145-2.64-3.053-2.64l-3.817.252zm23.791 0v5.656l-4.453-5.656h-1.272v8.17h1.4v-5.908l4.58 5.782h1.272v-8.17l-1.527.126zm5.089 1.257h1.654a2.838 2.838 0 013.054 2.639c.127 1.508-1.018 2.89-2.672 3.016h-2.036v-5.655zm-1.526-1.257v8.17h3.053c2.29.125 4.326-1.509 4.453-3.771.127-2.263-1.527-4.273-3.817-4.4h-3.689zm9.415 8.17h1.399V57.06h-1.399v8.295zm9.414-8.17v5.656l-4.453-5.656h-1.399v8.17h1.399v-5.908l4.58 5.782h1.273v-8.17l-1.4.126zm-33.969 1.634l1.399 3.267h-2.799l1.4-3.267zm-.636-1.76l-3.69 8.295h1.527l.89-2.01h3.944l.891 2.01h1.527l-3.69-8.295h-1.399zm-65.649 2.388c0 1.508 1.018 2.011 2.799 2.514 1.527.377 1.908.628 1.908 1.257 0 .628-.509 1.005-1.527 1.005-1.017 0-1.908-.377-2.671-1.005l-.891 1.005c.891.88 2.163 1.257 3.435 1.257 1.781 0 2.926-.88 2.926-2.514s-.89-2.01-2.671-2.388c-1.781-.377-2.036-.628-2.036-1.257 0-.628.509-1.005 1.4-1.005.763 0 1.654.377 2.29.88l.763-1.131c-.891-.629-1.908-1.006-3.053-1.006-1.4-.126-2.672.88-2.799 2.262.127 0 .127.126.127.126zm11.196 1.885c-.127 2.263 1.654 4.148 3.944 4.274h.381a5.47 5.47 0 003.436-1.257v-3.52h-3.563v1.257h2.163v1.509c-.636.377-1.272.628-2.036.628-1.526 0-2.799-1.131-2.799-2.64v-.25c-.127-1.509 1.145-2.891 2.672-2.891.891 0 1.654.251 2.29.88l.891-1.132c-.891-.754-2.036-1.13-3.181-1.13-2.29 0-4.198 1.759-4.325 4.147.127-.126.127-.126.127.125zm23.409 1.634c0-.628.509-1.257 1.145-1.382l1.782 1.885c-.382.377-1.018.628-1.527.754-.636 0-1.272-.503-1.4-1.257zm1.018-4.022c0-.502.382-1.005.891-1.005h.127c.509 0 .891.377.891.88v.125c0 .629-.509 1.006-1.273 1.257-.381-.377-.636-.754-.636-1.257zm-1.272.126c0 .628.254 1.257.636 1.76-1.018.377-1.781 1.256-1.781 2.262.127 1.382 1.272 2.388 2.672 2.262h.127c1.018 0 1.908-.377 2.544-1.005l1.145 1.13 1.146-.753-1.273-1.257 1.145-1.885-1.145-.629c-.254.503-.509 1.131-.89 1.634l-1.4-1.382c1.145-.377 1.781-1.006 1.781-2.137s-.89-2.01-2.035-2.01h-.128c-1.145-.127-2.29.753-2.417 1.884-.127 0-.127 0-.127.126zm69.211 2.137c-.127 2.262 1.781 4.147 3.944 4.147h.255a5.47 5.47 0 003.435-1.257V60.58h-3.435v1.257h2.162v1.508c-.636.377-1.272.629-2.035.629-1.527 0-2.799-1.131-2.799-2.64v-.251c-.127-1.508 1.145-2.89 2.672-2.89.89 0 1.654.25 2.29.879l.89-1.131c-.89-.754-2.035-1.131-3.18-1.131-2.29 0-4.199 1.76-4.326 4.147.127.126.127.126.127.252zM177.226 43.989l-2.29 3.645-2.29-3.645h-1.781l3.308 5.027v3.268h1.527v-3.268l3.308-4.901h-1.782v-.126zm16.922 0v5.656l-4.453-5.656h-1.4v8.17h1.4V46.25l4.58 5.782h1.272v-8.044h-1.399zm3.562 8.17h1.399v-8.17h-1.399v8.17zm23.791-6.913h1.654a2.839 2.839 0 013.054 2.64c.127 1.507-1.018 2.89-2.672 3.016h-2.036v-5.656zm-1.526-1.257v8.17h3.053c2.29.125 4.326-1.509 4.453-3.771.127-2.262-1.527-4.273-3.817-4.399h-3.689zm9.287 0v8.17h6.234v-1.257h-4.707v-2.263h4.198v-1.257h-4.198v-2.136h4.707v-1.257h-6.234zm-46.692 1.634l1.399 3.268h-2.799l1.4-3.268zm-.763-1.76l-3.69 8.295h1.527l.89-2.01h3.944l.891 2.01h1.527l-3.69-8.295h-1.399zm19.211 4.148c0 2.262 1.781 4.147 4.071 4.273h.127c1.273 0 2.545-.503 3.435-1.382l-.89-1.006a3.498 3.498 0 01-2.418 1.006c-1.653-.126-2.798-1.634-2.671-3.142.127-1.383 1.272-2.514 2.671-2.64.891 0 1.782.377 2.291 1.006l.89-1.006c-.89-.88-2.035-1.257-3.308-1.257-2.29-.125-4.198 1.76-4.325 4.022.127 0 .127.126.127.126zm10.051 0c-.128-1.508 1.145-2.89 2.671-2.89h.128c1.526 0 2.799 1.256 2.799 2.764v.126c.127 1.508-1.145 2.89-2.672 2.89h-.127c-1.527 0-2.799-1.256-2.799-2.89 0 .126 0 .126 0 0zm-1.527 0c0 2.388 1.908 4.273 4.326 4.273 2.417 0 4.325-1.885 4.325-4.273s-1.908-4.273-4.325-4.273c-2.29-.126-4.326 1.76-4.326 4.022v.25z" fill="url(#paint2_linear)"/><defs><linearGradient id="paint0_linear" x1="1.272" y1="46.004" x2="300.683" y2="46.004" gradientUnits="userSpaceOnUse"><stop stop-color="#C5953E"/><stop offset=".61" stop-color="#B6781C"/><stop offset=".76" stop-color="#A96517"/><stop offset="1" stop-color="#964B0F"/></linearGradient><linearGradient id="paint1_linear" x1="1.275" y1="46.031" x2="300.68" y2="46.031" gradientUnits="userSpaceOnUse"><stop stop-color="#C5953E"/><stop offset=".61" stop-color="#B6781C"/><stop offset=".76" stop-color="#A96517"/><stop offset="1" stop-color="#964B0F"/></linearGradient><linearGradient id="paint2_linear" x1="1.272" y1="61.19" x2="300.683" y2="61.19" gradientUnits="userSpaceOnUse"><stop stop-color="#C5953E"/><stop offset=".61" stop-color="#B6781C"/><stop offset=".76" stop-color="#A96517"/><stop offset="1" stop-color="#964B0F"/></linearGradient></defs></svg>