<svg width="53" height="52" fill="none" xmlns="http://www.w3.org/2000/svg"><g clip-path="url(#clip0)" fill="#fff"><path d="M31.373 25.732a4.925 4.925 0 11-9.85 0 4.925 4.925 0 019.85 0z"/><path d="M37.966 17.018a4.578 4.578 0 00-1.105-1.7 4.575 4.575 0 00-1.7-1.104c-.52-.203-1.302-.443-2.743-.509-1.558-.071-2.025-.086-5.97-.086-3.946 0-4.413.015-5.971.086-1.441.066-2.224.306-2.744.508a4.571 4.571 0 00-1.699 1.106 4.58 4.58 0 00-1.105 1.699c-.203.52-.443 1.303-.509 2.744-.07 1.557-.086 2.025-.086 5.97s.015 4.413.086 5.971c.066 1.44.306 2.223.509 2.744a4.578 4.578 0 001.105 1.698 4.58 4.58 0 001.699 1.106c.52.202 1.303.443 2.744.509 1.558.07 2.024.086 5.97.086 3.946 0 4.413-.015 5.97-.086 1.441-.066 2.224-.307 2.745-.51a4.893 4.893 0 002.804-2.803c.202-.521.443-1.303.509-2.744.07-1.558.086-2.026.086-5.97 0-3.946-.015-4.414-.086-5.971-.066-1.441-.307-2.224-.51-2.744zM26.447 33.319a7.587 7.587 0 110-15.174 7.587 7.587 0 010 15.174zm7.888-13.701a1.773 1.773 0 110-3.547 1.773 1.773 0 010 3.547z"/><path d="M26.448 0C12.238 0 .716 11.523.716 25.732s11.522 25.732 25.732 25.732c14.209 0 25.731-11.523 25.731-25.732C52.18 11.522 40.657 0 26.447 0zm14.686 31.824c-.071 1.573-.322 2.646-.687 3.586a7.556 7.556 0 01-4.321 4.322c-.94.365-2.014.615-3.586.687-1.576.071-2.08.089-6.092.089-4.013 0-4.516-.018-6.092-.09-1.573-.071-2.647-.321-3.587-.686a7.24 7.24 0 01-2.617-1.705 7.24 7.24 0 01-1.704-2.617c-.365-.94-.615-2.013-.687-3.586-.072-1.576-.09-2.08-.09-6.092 0-4.013.018-4.516.09-6.092.071-1.573.321-2.647.686-3.587a7.238 7.238 0 011.705-2.617 7.237 7.237 0 012.617-1.704c.94-.365 2.014-.615 3.587-.687 1.575-.072 2.079-.089 6.091-.089 4.013 0 4.517.017 6.092.09 1.573.071 2.647.32 3.587.686.986.37 1.88.953 2.617 1.704a7.24 7.24 0 011.704 2.617c.366.94.616 2.014.687 3.587.072 1.576.09 2.08.09 6.092 0 4.013-.018 4.516-.09 6.092z"/></g><defs><clipPath id="clip0"><path fill="#fff" transform="translate(.716)" d="M0 0h51.464v51.464H0z"/></clipPath></defs></svg>