<svg width="52" height="52" fill="none" xmlns="http://www.w3.org/2000/svg"><g clip-path="url(#clip0)" fill="#fff"><path d="M22.958 30.553l8.37-4.821-8.37-4.82v9.64z"/><path d="M26.163 0C11.953 0 .43 11.523.43 25.732s11.523 25.732 25.732 25.732S51.895 39.94 51.895 25.732C51.895 11.522 40.372 0 26.163 0zM42.24 25.758s0 5.219-.662 7.735a4.029 4.029 0 01-2.834 2.834c-2.517.663-12.582.663-12.582.663s-10.04 0-12.582-.69a4.03 4.03 0 01-2.835-2.834c-.662-2.49-.662-7.734-.662-7.734s0-5.218.662-7.735c.37-1.377 1.484-2.49 2.835-2.86 2.516-.663 12.582-.663 12.582-.663s10.065 0 12.582.689a4.03 4.03 0 012.834 2.834c.689 2.517.662 7.761.662 7.761z"/></g><defs><clipPath id="clip0"><path fill="#fff" transform="translate(.43)" d="M0 0h51.464v51.464H0z"/></clipPath></defs></svg>