<svg width="49" height="51" fill="none" xmlns="http://www.w3.org/2000/svg"><path d="M24.506 0h-.012C10.985 0 0 11.217 0 25.01c0 5.47 1.727 10.541 4.664 14.658L1.611 48.96l9.417-3.073a23.937 23.937 0 0013.478 4.133C38.015 50.02 49 38.8 49 25.01 49 11.22 38.015 0 24.506 0zm14.256 35.317c-.591 1.703-2.937 3.117-4.808 3.53-1.28.277-2.952.5-8.581-1.883-7.2-3.045-11.837-10.513-12.198-10.998-.346-.484-2.91-3.954-2.91-7.543 0-3.59 1.786-5.337 2.506-6.087.59-.616 1.568-.897 2.505-.897.303 0 .575.015.82.028.72.031 1.082.075 1.556 1.235.591 1.453 2.03 5.042 2.202 5.411.175.37.35.87.104 1.354-.23.5-.431.722-.793 1.147-.361.425-.704.75-1.066 1.207-.33.397-.704.822-.288 1.557.417.719 1.856 3.117 3.976 5.042 2.734 2.486 4.952 3.28 5.745 3.617.59.25 1.295.191 1.727-.278.548-.603 1.225-1.604 1.914-2.588.49-.707 1.109-.794 1.758-.544.662.234 4.162 2 4.882 2.366.72.37 1.194.544 1.369.854.171.31.171 1.763-.42 3.47z" fill="#fff"/></svg>