<svg width="49" height="51" fill="none" xmlns="http://www.w3.org/2000/svg"><path d="M24.5.98C10.97.98 0 12.179 0 25.99 0 39.803 10.97 51 24.5 51S49 39.803 49 25.99C49 12.178 38.03.98 24.5.98zm5.762 32.077a.797.797 0 01-.23.555.764.764 0 01-.546.228H14.35a4.206 4.206 0 01-3.008-1.257 4.384 4.384 0 01-1.258-3.06v-10.6a.797.797 0 01.23-.554.765.765 0 01.547-.228h15.136a4.206 4.206 0 013.008 1.257c.8.81 1.252 1.91 1.258 3.06v10.599zm8.176.038c0 .946-.514.83-.963.487l-6.249-4.65v-5.873l6.249-4.66c.543-.459.963-.344.963.487v14.21z" fill="#fff"/></svg>