<svg width="49" height="51" fill="none" xmlns="http://www.w3.org/2000/svg"><path d="M47.542 30.289c3.545-16.26-10.41-31.03-26.799-28.194C11.846-3.54 0 2.828 0 13.632c0 2.513.68 4.865 1.86 6.893-3.294 16.296 10.776 30.854 27.15 27.825 11.575 6.248 24.365-6.212 18.532-18.061zm-15.579 9.805c-4.3 1.805-11.375 1.815-15.656-.473-6.105-3.322-7.19-10.802-1.923-10.802 3.969 0 2.712 4.723 6.72 6.65 1.84.867 5.795.957 8.093-.625 2.27-1.551 2.063-3.991.829-5.157-3.27-3.081-12.626-1.857-16.903-7.25-1.858-2.34-2.209-6.469.075-9.463 3.982-5.23 15.665-5.548 20.689-1.598 4.638 3.664 3.385 8.527-.357 8.527-4.502 0-2.136-6.013-9.403-6.013-5.268 0-7.34 3.825-3.63 5.686 5.03 2.55 17.846 1.698 17.846 11.664-.01 4.147-2.5 7.238-6.38 8.854z" fill="#fff"/></svg>